:SAMPLES-PER-SECOND 30
:FULLY-SPECIFIED
:DEGREES
480
root  -5.6406 40.5277 1.36251 -140.701 -85.0304 138.348
RightUpLeg  5.7874 -13.5076 -8.93444
RightLeg  12.0448 -9.18314 0.696819
RightFoot  -12.5261 -0.0523379 3.10741
RightToes  0.000482159 0.542163 -0.142577
Spine  5.11978 0.992999 -1.08176
Spine1  3.74355 1.13036 -0.115527
HEad  9.04697 2.46375 0.477576
LeftShoulder1  0.695287 -1.50796 -6.07829
LeftArm  -19.9672 18.6373 -7.70538
LeftForeArm  10.6941 -3.18217 0.226209
LeftHand  -0.25398 0.0180481 5.50724
RightShoulder  0.365847 -1.01694 7.11669
RightArm  -24.2015 -1.2869 0.046984
RightForeArm  -2.44361 1.78608 1.98222
RightHand  -3.42653 10.2682 -25.4483
LeftUpLeg  3.2588 5.16691 -2.85341
LeftLeg  7.82107 17.0968 -2.05128
LeftFoot  -10.383 0.0559841 0.658655
LeftToes  1.06246e-005 4.65854e-005 -8.18503e-006
481
root  -5.74919 40.4111 1.52769 -144.008 -84.6136 141.386
RightUpLeg  4.15995 -16.0318 -9.16999
RightLeg  15.8564 -5.99585 -0.978316
RightFoot  -13.1322 -0.0174257 4.49495
RightToes  0.000482159 0.542163 -0.142577
Spine  5.77551 1.08373 -1.37522
Spine1  3.56501 1.1508 -0.170698
HEad  9.73277 2.54865 0.692021
LeftShoulder1  0.668512 -1.28357 -6.16792
LeftArm  -20.2609 19.0839 -7.30066
LeftForeArm  10.2159 -3.81861 0.310472
LeftHand  -0.25398 0.0180481 5.50724
RightShoulder  0.36592 -0.997884 6.99026
RightArm  -24.638 -1.25313 -0.11236
RightForeArm  -3.84562 1.88424 1.97088
RightHand  -3.30072 9.81477 -25.2492
LeftUpLeg  3.27048 5.68321 -3.01583
LeftLeg  9.02131 17.0904 -1.84556
LeftFoot  -11.4798 0.0631033 0.536704
LeftToes  1.06246e-005 4.65854e-005 -8.18503e-006
482
root  -5.82277 40.2542 1.68911 -148.06 -83.8261 145.005
RightUpLeg  1.20851 -14.9383 -9.13343
RightLeg  21.9334 -5.38985 -2.75711
RightFoot  -12.8823 0.00790767 7.44982
RightToes  0.000482159 0.542163 -0.142577
Spine  7.02447 1.3817 -1.67817
Spine1  3.27841 1.39383 -0.507817
HEad  10.0557 2.44511 0.762848
LeftShoulder1  0.666929 -1.26343 -6.24696
LeftArm  -20.5613 19.4484 -6.94288
LeftForeArm  10.1518 -4.42651 0.397571
LeftHand  -0.25398 0.0180481 5.50724
RightShoulder  0.334882 -1.17997 6.77659
RightArm  -25.1039 -1.15025 -0.244116
RightForeArm  -5.48581 1.82512 1.95222
RightHand  -3.16961 9.39007 -24.956
LeftUpLeg  3.1748 6.18169 -3.31367
LeftLeg  10.6605 17.568 -1.45732
LeftFoot  -12.7289 0.0710932 0.392433
LeftToes  1.06246e-005 4.65854e-005 -8.18503e-006
483
root  -5.89461 40.1117 1.83486 -152.354 -82.6426 148.726
RightUpLeg  -3.04446 -11.3066 -9.14832
RightLeg  30.3334 -7.25759 -4.81634
RightFoot  -10.5705 -0.131328 9.23807
RightToes  0.000482159 0.542163 -0.142577
Spine  8.61677 1.77456 -1.97538
Spine1  3.08767 1.7753 -1.0108
HEad  10.0355 2.44218 0.808063
LeftShoulder1  0.66211 -1.29856 -6.23142
LeftArm  -20.7966 19.762 -6.7264
LeftForeArm  10.39 -4.7482 0.504491
LeftHand  -0.25398 0.0180481 5.50724
RightShoulder  0.31491 -1.31557 6.75312
RightArm  -25.3929 -0.902483 -0.419465
RightForeArm  -6.43124 1.7239 1.94107
RightHand  -3.18867 9.43238 -25.0305
LeftUpLeg  3.33492 6.71996 -3.67087
LeftLeg  12.0338 18.3364 -1.10787
LeftFoot  -13.6919 0.0832784 0.182213
LeftToes  1.06246e-005 4.65854e-005 -8.18503e-006
484
root  -6.02145 40.0263 1.965 -156.313 -81.4861 152.181
RightUpLeg  -7.95068 -9.23071 -9.03704
RightLeg  39.0299 -8.01182 -7.15373
RightFoot  -6.21602 -0.380963 7.80234
RightToes  0.000482159 0.542163 -0.142577
Spine  10.0426 1.99335 -2.04873
Spine1  3.06734 2.03883 -1.42659
HEad  9.90232 2.74443 0.89544
LeftShoulder1  0.658942 -1.24567 -6.22739
LeftArm  -20.9513 20.1615 -6.63395
LeftForeArm  10.5924 -5.01135 0.591644
LeftHand  -0.25398 0.0180481 5.50724
RightShoulder  0.329976 -1.22584 6.8592
RightArm  -25.4791 -0.670668 -0.513777
RightForeArm  -6.54941 1.84056 1.9729
RightHand  -3.17132 9.36543 -25.0058
LeftUpLeg  3.9181 7.1544 -3.87148
LeftLeg  12.5566 19.1286 -1.02549
LeftFoot  -14.3251 0.0887722 0.0937232
LeftToes  1.06246e-005 4.65854e-005 -8.18503e-006
485
root  -6.23314 39.9556 2.07311 -159.099 -80.6371 154.777
RightUpLeg  -12.6899 -8.65337 -8.68458
RightLeg  45.4594 -7.08183 -7.91712
RightFoot  -2.26497 -0.412408 4.93712
RightToes  0.000482159 0.542163 -0.142577
Spine  10.9648 1.99297 -2.0439
Spine1  3.10335 2.06486 -1.72903
HEad  10.0253 3.23306 0.794955
LeftShoulder1  0.661694 -1.12332 -6.53679
LeftArm  -21.1239 20.6468 -6.59464
LeftForeArm  10.4337 -5.60653 0.611884
LeftHand  -0.25398 0.0180481 5.50724
RightShoulder  0.352928 -1.08023 6.94713
RightArm  -25.4484 -0.596228 -0.420673
RightForeArm  -5.94301 2.36829 2.05702
RightHand  -2.99179 8.84632 -24.4723
LeftUpLeg  4.40802 7.22965 -3.9758
LeftLeg  12.8498 19.943 -1.01652
LeftFoot  -15.0557 0.0898104 -0.0103987
LeftToes  1.06246e-005 4.65854e-005 -8.18503e-006
486
root  -6.53314 39.9194 2.16163 -161.519 -80.2628 157.453
RightUpLeg  -16.5304 -9.23533 -7.87554
RightLeg  47.6374 -5.1319 -6.34805
RightFoot  -0.734567 -0.365327 3.85371
RightToes  0.000482159 0.542163 -0.142577
Spine  11.3986 1.77921 -1.80192
Spine1  3.02235 1.87371 -1.91312
HEad  10.5794 3.72935 0.357577
LeftShoulder1  0.68366 -1.02343 -7.43427
LeftArm  -21.6816 21.1735 -6.62112
LeftForeArm  9.99239 -6.84807 0.640258
LeftHand  -0.25398 0.0180481 5.50724
RightShoulder  0.358818 -1.07085 7.15957
RightArm  -25.4105 -0.725221 -0.0754208
RightForeArm  -5.63952 3.35191 2.22903
RightHand  -2.91299 8.62042 -24.2236
LeftUpLeg  4.63484 6.92873 -3.88289
LeftLeg  12.9291 20.6129 -1.04859
LeftFoot  -15.6958 0.0792099 -0.39345
LeftToes  1.06246e-005 4.65854e-005 -8.18503e-006
